<?xml version="1.0" standalone="no"?>
<!DOCTYPE svg PUBLIC "-//W3C//DTD SVG 20010904//EN"
 "http://www.w3.org/TR/2001/REC-SVG-20010904/DTD/svg10.dtd">
<svg version="1.0" xmlns="http://www.w3.org/2000/svg"
 width="340.000000pt" height="340.000000pt" viewBox="0 0 340.000000 340.000000"
 preserveAspectRatio="xMidYMid meet">
<metadata>
Created by potrace 1.11, written by Peter Selinger 2001-2013
</metadata>
<g transform="translate(0.000000,340.000000) scale(0.100000,-0.100000)"
fill="#000000" stroke="none">
<path d="M0 1700 l0 -1700 1700 0 1700 0 0 1700 0 1700 -1700 0 -1700 0 0
-1700z m1726 1227 c3 -18 25 -52 48 -77 71 -77 213 -277 203 -286 -1 -2 -34 1
-72 6 -39 5 -131 9 -205 9 -74 0 -166 -4 -205 -9 -38 -5 -71 -7 -74 -5 -8 8
129 202 188 267 34 36 61 73 61 82 0 8 5 26 12 40 14 32 33 20 44 -27z m143
-397 c56 -6 112 -15 125 -20 45 -17 132 -280 157 -475 14 -109 6 -348 -16
-455 -18 -91 -68 -248 -98 -310 -20 -41 -26 -46 -77 -58 -30 -7 -127 -16 -214
-19 -126 -5 -180 -2 -262 12 l-103 18 -30 71 c-77 186 -101 303 -108 521 -4
141 -2 201 11 275 19 110 66 268 106 356 31 69 33 70 164 84 108 11 233 11
345 0z m-669 -810 c0 -73 42 -255 86 -379 25 -67 44 -124 42 -126 -5 -5 -274
-85 -286 -85 -9 0 -12 53 -12 202 l0 202 77 117 c43 65 81 115 85 112 5 -2 8
-22 8 -43z m1088 -60 l72 -110 0 -210 c0 -115 -3 -210 -7 -210 -26 0 -283 85
-283 94 0 6 13 43 28 81 53 131 102 339 102 431 0 19 3 34 8 34 4 0 40 -50 80
-110z m-653 -516 c55 -4 143 -1 194 5 52 6 96 9 98 7 2 -2 -6 -28 -18 -59 -19
-51 -25 -57 -58 -64 -47 -10 -255 -10 -302 0 -32 6 -39 14 -58 59 -28 67 -27
72 11 64 18 -4 78 -9 133 -12z m-52 -218 c-7 -65 15 -116 77 -186 l40 -45 31
35 c77 88 107 178 77 233 -11 21 -10 21 13 6 33 -21 69 -95 69 -141 0 -21 -11
-68 -25 -105 -27 -71 -112 -237 -148 -286 l-20 -29 -29 47 c-41 66 -124 231
-143 284 -18 51 -20 118 -4 158 8 23 56 83 65 83 1 0 0 -24 -3 -54z"/>
<path d="M1616 2224 c-67 -21 -137 -93 -161 -163 -31 -93 -10 -187 59 -259
158 -169 442 -54 440 178 -1 175 -170 298 -338 244z m164 -106 c51 -35 73 -71
78 -130 3 -44 0 -59 -20 -88 -51 -75 -136 -101 -214 -64 -77 37 -108 144 -64
222 44 78 151 107 220 60z"/>
</g>
</svg>
